<svg width="102" height="73" viewBox="0 0 102 73" fill="none" xmlns="http://www.w3.org/2000/svg">
<path d="M0.00800008 3.136C0.00800008 1.12 1.208 0.111999 3.608 0.111999C6.04 0.111999 7.256 1.168 7.256 3.28V10H5.576V3.328C5.576 2.4 5.448 1.728 5.192 1.312C4.936 0.863997 4.424 0.639997 3.656 0.639997C2.888 0.639997 2.36 0.863997 2.072 1.312C1.816 1.728 1.688 2.4 1.688 3.328V9.088C1.688 10.304 1.848 11.2 2.168 11.776C2.616 12.64 3.16 13.424 3.8 14.128C4.472 14.832 4.984 15.424 5.336 15.904C5.688 16.352 6.008 16.88 6.296 17.488C6.936 18.832 7.256 20.416 7.256 22.24V31.216C7.256 33.232 6.04 34.24 3.608 34.24C1.208 34.24 0.00800008 33.184 0.00800008 31.072V24.4H1.688V31.024C1.688 31.952 1.816 32.64 2.072 33.088C2.328 33.504 2.84 33.712 3.608 33.712C4.376 33.712 4.888 33.504 5.144 33.088C5.432 32.64 5.576 31.952 5.576 31.024V22.624C5.576 20.8 5.416 19.52 5.096 18.784C4.648 17.696 4.088 16.784 3.416 16.048C2.776 15.312 2.28 14.736 1.928 14.32C1.576 13.904 1.256 13.456 0.968 12.976C0.328 11.856 0.00800008 10.64 0.00800008 9.328V3.136ZM19.2744 3.088C19.2744 1.104 20.4744 0.111999 22.8744 0.111999C25.3064 0.111999 26.5224 1.136 26.5224 3.184V10H24.8424V3.376C24.8424 2.416 24.7304 1.76 24.5064 1.408C24.2824 1.024 23.7864 0.831998 23.0184 0.831998C22.2504 0.831998 21.7064 1.008 21.3864 1.36C21.0984 1.68 20.9544 2.304 20.9544 3.232V31.024C20.9544 31.952 21.0664 32.608 21.2904 32.992C21.5144 33.376 22.0104 33.568 22.7784 33.568C23.5464 33.568 24.0744 33.392 24.3624 33.04C24.6824 32.688 24.8424 32.048 24.8424 31.12V24.4H26.5224V31.264C26.5224 33.248 25.3064 34.24 22.8744 34.24C20.4744 34.24 19.2744 33.216 19.2744 31.168V3.088ZM42.6207 0.399998C44.7648 0.527998 45.8368 1.52 45.8368 3.376V13.984C45.8368 15.392 45.3088 16.304 44.2528 16.72C45.3088 17.168 45.8368 18.032 45.8368 19.312V34H44.1568V19.504C44.1568 18.64 44.0288 18.048 43.7728 17.728C43.5168 17.376 43.0688 17.168 42.4287 17.104H40.2688V34H38.5887V0.399998H42.6207ZM40.2688 1.12V16.384H42.3328C43.1008 16.384 43.5968 16.192 43.8208 15.808C44.0448 15.424 44.1568 14.768 44.1568 13.84V3.52C44.1568 2.656 44.0288 2.064 43.7728 1.744C43.5168 1.392 43.0688 1.184 42.4287 1.12H40.2688ZM65.1511 31.264C65.1511 33.248 63.9351 34.24 61.5031 34.24C59.1031 34.24 57.9031 33.216 57.9031 31.168V3.088C57.9031 1.104 59.1031 0.111999 61.5031 0.111999C63.9351 0.111999 65.1511 1.136 65.1511 3.184V31.264ZM63.4711 3.376C63.4711 2.416 63.3591 1.76 63.1351 1.408C62.9111 1.024 62.4151 0.831998 61.6471 0.831998C60.8791 0.831998 60.3351 1.008 60.0151 1.36C59.7271 1.68 59.5831 2.304 59.5831 3.232V31.024C59.5831 31.952 59.6951 32.608 59.9191 32.992C60.1431 33.376 60.6391 33.568 61.4071 33.568C62.1751 33.568 62.7031 33.392 62.9911 33.04C63.3111 32.688 63.4711 32.048 63.4711 31.12V3.376ZM77.2175 0.399998H78.8975V33.28H83.5535V34H77.2175V0.399998ZM95.4538 0.399998H97.1338V33.28H101.79V34H95.4538V0.399998Z" fill="#F12E3C"/>
<line x1="8" y1="49.5" x2="89" y2="49.5" stroke="#F12E3C" stroke-opacity="0.3"/>
<line x1="8" y1="60.5" x2="89" y2="60.5" stroke="#F12E3C" stroke-opacity="0.3"/>
<line x1="8" y1="72.5" x2="89" y2="72.5" stroke="#F12E3C" stroke-opacity="0.3"/>
</svg>
